<?xml version="1.0" encoding="UTF-8"?><svg xmlns="http://www.w3.org/2000/svg" viewBox="0 0 429.32 79.32"><defs><style>.d{fill:#fff;}</style></defs><g id="a"/><g id="b"><g id="c"><g><path class="d" d="M74.43,0h14.73V66.86h41.48v12.47h-56.21V0Z"/><g><rect class="d" x="312.07" y="22.54" width="14.73" height="56.78"/><polygon class="d" points="285.78 0 285.78 12.47 312.07 12.47 312.07 12.47 326.8 12.47 326.8 12.47 353.09 12.47 353.09 0 285.78 0"/></g><g><rect class="d" x="374.52" y="32.52" width="48.43" height="12.94"/><rect class="d" x="374.52" width="53.23" height="13.17"/><rect class="d" x="374.52" y="66.05" width="54.8" height="13.17"/></g><g><polygon class="d" points="254.04 0 240.51 0 267.43 62.95 267.38 62.97 274.44 79.32 289.85 79.32 254.04 0"/><polygon class="d" points="222.86 70.34 226.85 60.97 226.86 60.97 234.05 44.17 234.07 44.18 240.16 30.43 233.25 14.29 203.84 79.32 219.01 79.32 222.86 70.34"/></g><g><rect class="d" y="32.98" width="49.11" height="12.12"/><rect class="d" width="53.98" height="12.35"/><rect class="d" y="66.97" width="55.56" height="12.35"/></g><g><polygon class="d" points="160.92 79.32 174.46 79.32 147.53 16.37 147.59 16.35 140.52 0 125.11 0 160.92 79.32"/><polygon class="d" points="192.11 8.99 188.12 18.36 188.1 18.36 180.92 35.15 180.89 35.14 174.68 49.28 181.59 65.42 211.12 0 195.95 0 192.11 8.99"/></g></g></g></g></svg>