<?xml version="1.0" encoding="UTF-8"?><svg xmlns="http://www.w3.org/2000/svg" viewBox="0 0 127.22 111.14"><defs><style>.d{fill:#00bd8a;}.e{fill:#fff;}</style></defs><g id="a"/><g id="b"><g id="c"><g><g><path class="d" d="M53.71,60.91c0-3.69,2.07-6.89,5.12-8.51-21.51-2.27-38.28-20.47-38.28-42.59,0-3.2,.36-6.31,1.03-9.3C8.35,12.16,0,29.21,0,48.22c0,31.76,23.28,58.08,53.71,62.84V60.91Z"/><path class="d" d="M105.06,0c.74,3.15,1.14,6.43,1.14,9.81,0,22.13-16.78,40.34-38.32,42.59,3.04,1.62,5.11,4.82,5.11,8.51v50.23c30.68-4.54,54.22-30.97,54.22-62.91,0-19.29-8.6-36.56-22.16-48.22Z"/></g><g><path class="e" d="M53.71,60.91c0-3.7,2.09-6.92,5.16-8.53-14.63-1.53-27.07-10.42-33.54-22.91-1.98,4.77-3.08,9.99-3.08,15.47,0,19.23,13.45,35.32,31.46,39.38v-23.41Z"/><path class="e" d="M100.56,31.05c-6.68,11.67-18.69,19.87-32.71,21.33,3.06,1.62,5.15,4.83,5.15,8.53v23.06c17.28-4.58,30.02-20.31,30.02-39.03,0-4.88-.87-9.56-2.45-13.89Z"/></g><path class="e" d="M63.35,13.7c-5.32,0-9.64,4.32-9.64,9.64V60.91c0-5.32,4.32-9.64,9.64-9.64s9.64,4.32,9.64,9.64V23.34c0-5.32-4.32-9.64-9.64-9.64Z"/><path class="d" d="M63.35,31.66c-5.32,0-9.64,4.32-9.64,9.64v19.6c0-5.32,4.32-9.64,9.64-9.64s9.64,4.32,9.64,9.64v-19.6c0-5.32-4.32-9.64-9.64-9.64Z"/></g></g></g></svg>