<?xml version="1.0" encoding="UTF-8"?><svg xmlns="http://www.w3.org/2000/svg" viewBox="0 0 581.17 111.14"><defs><style>.d{fill:#00bd8a;}.e{fill:#fff;}</style></defs><g id="a"/><g id="b"><g id="c"><g><g><g><path class="d" d="M53.71,60.91c0-3.69,2.07-6.89,5.12-8.51-21.51-2.27-38.28-20.47-38.28-42.59,0-3.2,.36-6.31,1.03-9.3C8.35,12.16,0,29.21,0,48.22c0,31.76,23.28,58.08,53.71,62.84V60.91Z"/><path class="d" d="M105.06,0c.74,3.15,1.14,6.43,1.14,9.81,0,22.13-16.78,40.34-38.32,42.59,3.04,1.62,5.11,4.82,5.11,8.51v50.23c30.68-4.54,54.22-30.97,54.22-62.91,0-19.29-8.6-36.56-22.16-48.22Z"/></g><g><path class="e" d="M53.71,60.91c0-3.7,2.09-6.92,5.16-8.53-14.63-1.53-27.07-10.42-33.54-22.91-1.98,4.77-3.08,9.99-3.08,15.47,0,19.23,13.45,35.32,31.46,39.38v-23.41Z"/><path class="e" d="M100.56,31.05c-6.68,11.67-18.69,19.87-32.71,21.33,3.06,1.62,5.15,4.83,5.15,8.53v23.06c17.28-4.58,30.02-20.31,30.02-39.03,0-4.88-.87-9.56-2.45-13.89Z"/></g><path class="e" d="M63.35,13.7c-5.32,0-9.64,4.32-9.64,9.64V60.91c0-5.32,4.32-9.64,9.64-9.64s9.64,4.32,9.64,9.64V23.34c0-5.32-4.32-9.64-9.64-9.64Z"/><path class="d" d="M63.35,31.66c-5.32,0-9.64,4.32-9.64,9.64v19.6c0-5.32,4.32-9.64,9.64-9.64s9.64,4.32,9.64,9.64v-19.6c0-5.32-4.32-9.64-9.64-9.64Z"/></g><path class="e" d="M226.29,15.18h14.73V82.04h41.48v12.47h-56.21V15.18Z"/><g><rect class="e" x="463.92" y="37.72" width="14.73" height="56.78"/><polygon class="e" points="437.63 15.18 437.63 27.64 463.92 27.64 463.92 27.65 478.65 27.65 478.65 27.64 504.94 27.64 504.94 15.18 437.63 15.18"/></g><g><rect class="e" x="526.37" y="47.7" width="48.43" height="12.94"/><rect class="e" x="526.37" y="15.18" width="53.23" height="13.17"/><rect class="e" x="526.37" y="81.23" width="54.8" height="13.17"/></g><g><polygon class="e" points="405.9 15.18 392.36 15.18 419.29 78.13 419.23 78.15 426.3 94.5 441.71 94.5 405.9 15.18"/><polygon class="e" points="374.71 85.51 378.7 76.14 378.72 76.14 385.9 59.35 385.93 59.36 392.01 45.61 385.11 29.46 355.7 94.5 370.87 94.5 374.71 85.51"/></g><g><rect class="e" x="151.85" y="48.15" width="49.11" height="12.12"/><rect class="e" x="151.85" y="15.18" width="53.98" height="12.35"/><rect class="e" x="151.85" y="82.15" width="55.56" height="12.35"/></g><g><polygon class="e" points="312.77 94.5 326.31 94.5 299.39 31.55 299.44 31.53 292.38 15.18 276.97 15.18 312.77 94.5"/><polygon class="e" points="343.96 24.17 339.97 33.54 339.95 33.54 332.77 50.33 332.75 50.32 326.54 64.46 333.44 80.6 362.98 15.18 347.81 15.18 343.96 24.17"/></g></g></g></g></svg>